<?xml version="1.0" standalone="no"?>
<!DOCTYPE svg PUBLIC "-//W3C//DTD SVG 1.1//EN" "http://www.w3.org/Graphics/SVG/1.1/DTD/svg11.dtd" >
<svg xmlns="http://www.w3.org/2000/svg">
<metadata>Generated by IcoMoon</metadata>
<defs>
<font id="Audri-alpha" horiz-adv-x="1024">
<font-face units-per-em="1024" ascent="960" descent="-64" />
<missing-glyph horiz-adv-x="1024" />
<glyph unicode="&#x20;" horiz-adv-x="512" d="" />
<glyph unicode="&#xe900;" glyph-name="arrow-down-stroke" d="M515.143 834.466c115.2 0 211.2-38.4 288-121.601 83.201-83.201 121.601-172.8 121.601-288s-38.4-211.2-121.601-288c-83.201-83.201-172.8-121.601-288-121.601s-211.2 38.4-288 121.601c-83.201 83.201-121.601 172.8-121.601 288s38.4 211.2 121.601 288c76.8 83.201 172.8 121.601 288 121.601zM515.143 936.865c-140.801 0-262.4-51.2-364.8-147.2-102.401-102.401-147.2-217.601-147.2-364.8 0-140.801 51.2-262.4 147.2-364.8 102.401-102.401 217.601-147.2 364.8-147.2 140.801 0 262.4 51.2 364.8 147.2 102.401 102.401 147.2 217.601 147.2 364.8s-51.2 262.4-147.2 364.8c-102.401 96-224 147.2-364.8 147.2v0zM559.943 252.065c0 0 0 0 0 0l230.4 230.4c32 32 32 57.6 0 89.6s-57.6 32-89.6 0l-192-192-192 192c-32 32-57.6 32-89.6 0s-32-57.6 0-89.6l236.801-230.4c32-32 64.001-32 96 0v0z" />
<glyph unicode="&#xe901;" glyph-name="arrow-right-stroke" d="M105.543 424.865c0 115.2 38.4 211.2 121.601 288 83.201 83.201 172.8 121.601 288 121.601s211.2-38.4 288-121.601c83.201-83.201 121.601-172.8 121.601-288s-38.4-211.2-121.601-288c-83.201-83.201-172.8-121.601-288-121.601s-211.2 38.4-288 121.601c-83.201 76.8-121.601 172.8-121.601 288zM3.143 424.865c0-140.801 51.2-262.4 147.2-364.8 102.401-102.401 217.601-147.2 364.8-147.2 140.801 0 262.4 51.2 364.8 147.2 102.401 102.401 147.2 217.601 147.2 364.8 0 140.801-51.2 262.4-147.2 364.8-102.401 102.401-217.601 147.2-364.8 147.2s-262.4-51.2-364.8-147.2c-96-102.401-147.2-224-147.2-364.8v0zM687.943 469.666v0l-230.4 230.4c-32 32-57.6 32-89.6 0s-32-57.6 0-89.6l192-192-192-192c-32-32-32-57.6 0-89.6s57.6-32 89.6 0l230.4 236.801c32 32 32 64.001 0 96v0z" />
<glyph unicode="&#xe902;" glyph-name="arrow-right-filled" d="M1027.144 424.865c0-140.801-51.2-262.4-147.2-364.8-102.401-102.401-217.601-147.2-364.8-147.2-140.801 0-262.4 51.2-364.8 147.2-102.401 102.401-147.2 217.601-147.2 364.8 0 140.801 51.2 262.4 147.2 364.8 102.401 102.401 217.601 147.2 364.8 147.2 140.801 0 262.4-51.2 364.8-147.2 96-102.401 147.2-224 147.2-364.8v0zM687.943 380.065c32 32 32 57.6 0 89.6l-230.4 236.801c-32 32-57.6 32-89.6 0s-32-57.6 0-89.6l192-192-192-192c-32-32-32-57.6 0-89.6s57.6-32 89.6 0l230.4 236.801c0 0 0 0 0 0v0z" />
<glyph unicode="&#xe903;" glyph-name="arrow-down-filled" d="M512 938.667v0c-140.801 0-262.4-51.2-364.8-147.2-102.401-102.401-147.2-217.601-147.2-364.8 0-140.801 51.2-262.4 147.2-364.8 102.401-102.401 217.601-147.2 364.8-147.2 140.801 0 262.4 51.2 364.8 147.2 102.401 102.401 147.2 217.601 147.2 364.8s-51.2 262.4-147.2 364.8c-102.401 96-224 147.2-364.8 147.2zM556.801 253.867c-32-32-64.001-32-96 0l-236.801 230.4c-32 32-32 57.6 0 89.6s57.6 32 89.6 0l192-192 192 192c32 32 57.6 32 89.6 0s32-57.6 0-89.6l-230.4-230.4z" />
<glyph unicode="&#xe904;" glyph-name="add-create" d="M710.401 503.467h-121.601v121.601c0 25.601-19.2 38.4-38.4 38.4h-76.8c-25.601 0-38.4-19.2-38.4-38.4v-121.601h-121.601c-25.601 0-38.4-19.2-38.4-38.4v-76.8c0-25.601 19.2-38.4 38.4-38.4h121.601v-121.601c0-25.601 19.2-38.4 38.4-38.4h76.8c25.601 0 38.4 19.2 38.4 38.4v121.601h121.601c25.601 0 38.4 19.2 38.4 38.4v76.8c0 19.2-19.2 38.4-38.4 38.4v0zM1024 426.667c0-281.6-230.4-512-512-512s-512 224-512 512 230.4 512 512 512 512-230.4 512-512z" />
<glyph unicode="&#xe905;" glyph-name="more-menu-dots-only" d="M239.561 426.667c0-65.762-56.367-122.129-122.129-122.129s-112.734 46.972-112.734 122.129c0 65.762 56.367 122.129 122.129 122.129s112.734-56.367 112.734-122.129zM634.129 426.667c0-65.762-56.367-122.129-122.129-122.129s-122.129 56.367-122.129 122.129 56.367 122.129 122.129 122.129c65.762-9.395 122.129-56.367 122.129-122.129zM1028.698 426.667c0-65.762-56.367-122.129-122.129-122.129s-122.129 56.367-122.129 122.129 56.367 122.129 122.129 122.129c65.762-9.395 122.129-56.367 122.129-122.129z" />
<glyph unicode="&#xe906;" glyph-name="more-menu-stoke" d="M710.4 874.667c140.8 0 249.6-115.2 249.6-249.6v-396.799c0-140.8-115.2-249.6-249.6-249.6h-396.799c-140.8 0-249.6 115.2-249.6 249.6v396.799c0 134.4 108.799 249.6 249.6 249.6h396.799zM710.4 938.666h-396.799c-172.8 0-313.6-140.8-313.6-313.6v-396.799c0-172.8 140.8-313.6 313.6-313.6h396.799c172.8 0 313.6 140.8 313.6 313.6v396.799c0 172.8-140.8 313.6-313.6 313.6v0zM332.8 426.667c0-45.949-37.249-83.2-83.2-83.2s-83.2 37.249-83.2 83.2c0 45.949 37.249 83.2 83.2 83.2s83.2-37.249 83.2-83.2zM595.2 426.667c0-45.949-37.249-83.2-83.2-83.2s-83.2 37.249-83.2 83.2c0 45.949 37.249 83.2 83.2 83.2s83.2-37.249 83.2-83.2zM864 426.667c0-45.949-37.249-83.2-83.2-83.2s-83.2 37.249-83.2 83.2c0 45.949 37.249 83.2 83.2 83.2s83.2-37.249 83.2-83.2z" />
<glyph unicode="&#xe907;" glyph-name="more-menu-fill" d="M313.6 938.666c-172.8 0-313.6-140.8-313.6-313.6v-396.799c0-179.2 140.8-313.6 313.6-313.6h396.799c172.8 0 313.6 140.8 313.6 313.6v396.799c0 172.8-140.8 313.6-313.6 313.6h-396.799zM326.401 426.667c0-44.8-38.4-83.2-83.2-83.2s-76.8 31.999-76.8 83.2c0 44.8 38.4 83.2 83.2 83.2s76.8-38.4 76.8-83.2zM595.2 426.667c0-44.8-38.4-83.2-83.2-83.2s-83.2 38.4-83.2 83.2c0 44.8 38.4 83.2 83.2 83.2 44.8-6.4 83.2-38.4 83.2-83.2zM864 426.667c0-44.8-38.4-83.2-83.2-83.2s-83.2 38.4-83.2 83.2c0 44.8 38.4 83.2 83.2 83.2 44.8-6.4 83.2-38.4 83.2-83.2z" />
<glyph unicode="&#xe908;" glyph-name="search" d="M709.486 507.123c0 73.143-29.258 138.972-80.456 197.486-51.201 51.201-117.029 80.456-197.486 80.456s-138.972-29.258-190.171-87.771c-58.514-51.201-80.456-117.029-80.456-190.171s29.258-138.972 80.456-197.486c51.201-51.201 117.029-80.456 197.486-80.456s138.972 29.258 197.486 80.456c43.886 58.514 73.143 117.029 73.143 197.486v0 0zM1024-4.875c0-21.943-7.315-36.571-21.943-58.514s-36.571-21.943-58.514-21.943c-21.943 0-43.886 7.315-58.514 21.943l-212.113 212.113c-73.143-51.201-153.6-73.143-248.686-73.143-58.514 0-117.029 14.628-168.228 36.571s-102.399 51.201-138.972 95.086c-36.571 36.571-73.143 87.771-95.086 138.972-7.315 43.886-21.943 102.399-21.943 160.915s14.628 117.029 36.571 168.228c21.943 51.201 51.201 102.399 95.086 138.972 36.571 36.571 87.771 73.143 138.972 95.086 51.201 14.628 102.399 29.258 160.915 29.258s117.029-14.628 168.228-36.571c51.201-21.943 102.399-51.201 138.972-95.086s73.143-87.771 95.086-138.972c21.943-51.201 36.571-109.714 36.571-168.228 0-87.771-21.943-175.543-73.143-248.686l212.113-212.113c7.315-7.315 14.628-21.943 14.628-43.886v0 0z" />
<glyph unicode="&#xe909;" glyph-name="refresh-clear" d="M413.957 154.327c-65.362 76.255-92.595 174.298-92.595 272.34h157.957l-239.66 272.34-239.66-272.34h152.511c0-103.49 32.681-212.426 103.49-288.681 114.383-125.276 283.235-152.511 413.959-76.255-92.595-16.34-185.192 21.788-256 92.595zM876.937 426.667c0 103.49-32.681 212.426-103.49 288.681-114.383 125.276-283.235 152.511-419.405 76.255 92.595 10.893 185.192-21.788 256-103.49 65.362-70.809 98.043-168.852 92.595-266.894h-157.957l239.66-266.894 239.66 266.894h-147.064z" />
<glyph unicode="&#xe90a;" glyph-name="filter" d="M1023.999 881.066h-1024l390.4-428.8v-486.4l243.199 134.4v352z" />
<glyph unicode="&#xe90b;" glyph-name="audience" d="M326.401 561.067c0 25.6 12.799 38.4 38.4 44.8s44.8-6.4 51.199-31.999c-19.2-12.799-25.6-31.999-25.6-57.6-6.4 0-12.799-6.4-19.2-6.4-12.799 0-25.6 6.4-31.999 12.799-6.4 12.799-12.799 25.6-12.799 38.4zM403.201 413.868l-12.799 76.8-19.2-19.2c0 0 0 0-6.4 0 0 0 0 0-6.4 0l-25.6 31.999c0 0 0 0 0 0h-6.4c-12.799 0-19.2-6.4-25.6-12.799s-12.799-19.2-6.4-31.999l12.799-83.2c0-12.799 6.4-19.2 19.2-25.6l19.2-127.999c0-6.4 6.4-12.799 12.799-12.799h25.6c6.4 0 12.799 6.4 12.799 12.799l19.2 127.999c6.4 0 6.4 6.4 12.799 6.4v12.799c-12.799 12.799-25.6 25.6-25.6 44.8zM1023.999 471.467v-83.2c0-6.4 0-6.4-6.4-6.4h-76.8c-12.799-102.4-51.199-185.599-127.999-262.399-70.399-70.399-160-115.2-262.399-121.6v-76.8c0-6.4 0-6.4-6.4-6.4h-83.2c-6.4 0-6.4 0-6.4 6.4v76.8c-102.4 12.799-192 51.199-262.399 127.999-70.399 70.399-115.2 160-127.999 262.399h-57.6c0 0-6.4 0-6.4 6.4v83.2c0 0 0 6.4 6.4 6.4h76.8c12.799 102.4 51.199 192 127.999 262.399s160 115.2 262.399 127.999v57.6c0 6.4 0 6.4 6.4 6.4h83.2c0 0 0 0 6.4 0 0 0 0 0 0-6.4v-76.8c102.4-12.799 185.599-51.199 262.399-127.999s115.2-160 121.6-262.399l70.399 6.4c0 0 0 0 0 0zM851.199 426.667c0 96-31.999 172.8-102.4 243.199s-140.8 102.4-236.8 102.4c-96 0-172.8-31.999-243.199-102.4s-102.4-147.199-102.4-243.199c0-96 31.999-172.8 102.4-243.199 64-64 147.199-102.4 243.199-102.4s172.8 31.999 243.199 102.4c64 70.399 96 147.199 96 243.199zM633.6 516.266c19.2-6.4 38.4-6.4 51.199 6.4s19.2 31.999 6.4 51.199c-6.4 19.2-25.6 25.6-44.8 25.6s-31.999-12.799-38.4-31.999c19.2-6.4 25.6-25.6 25.6-51.199zM512 580.267c38.4 0 51.199 19.2 51.199 51.199 0 38.4-19.2 51.199-51.199 51.199-38.4 0-51.199-19.2-51.199-51.199s12.799-51.199 51.199-51.199zM608 516.266c0 12.799 0 25.6-12.799 38.4-6.4 12.799-19.2 12.799-31.999 12.799h-19.2c0 0 0 0 0 0l-25.6-31.999c0 0 0 0-6.4 0 0 0-6.4 0-6.4 0l-25.6 31.999c0 0 0 0 0 0h-19.2c-12.799 0-25.6-6.4-31.999-12.799-6.4-12.799-12.799-19.2-12.799-38.4l12.799-102.4c0-12.799 12.799-25.6 25.6-31.999l19.2-204.799c0-12.799 6.4-12.799 19.2-12.799h38.4c12.799 0 19.2 6.4 19.2 12.799l19.2 204.799c12.799 6.4 25.6 19.2 25.6 31.999zM697.599 497.066h-12.799c0 0 0 0 0 0l-25.6-31.999c0 0 0 0-6.4 0s0 0-6.4 0l-12.799 25.6-12.799-76.8c0-19.2-12.799-31.999-25.6-44.8v-12.799c6.4-6.4 6.4-6.4 12.799-6.4l19.2-127.999c0-6.4 6.4-12.799 12.799-12.799h31.999c6.4 0 12.799 6.4 12.799 12.799l19.2 127.999c12.799 6.4 19.2 12.799 19.2 25.6l12.799 83.2c0 12.799 0 19.2-12.799 31.999-6.4 6.4-19.2 6.4-25.6 6.4z" />
<glyph unicode="&#xe90c;" glyph-name="dollar-sign" d="M380.343 177.981c29.258-21.943 58.514-43.886 95.086-51.2v241.371c-7.315 0-7.315 0-14.628 7.315-7.315 0-14.628 0-21.943 7.315-29.258 7.315-58.514 14.628-87.771 29.258-29.258 7.315-58.514 21.943-80.456 43.886-21.943 14.628-43.886 36.571-58.514 65.828-21.943 21.943-29.258 51.2-29.258 87.771s7.315 73.143 21.943 102.399c14.628 29.258 36.571 58.514 65.828 73.143 29.258 29.258 58.514 43.886 95.086 51.2 36.571 14.628 73.143 14.628 109.714 21.943v80.456h87.771v-80.456c36.571-7.315 58.514-14.628 95.086-21.943 36.571-14.628 58.514-29.258 87.771-43.886 21.943-21.943 43.886-43.886 58.514-73.143s21.943-65.828 29.258-102.399h-175.543c0 29.258-14.628 58.514-29.258 80.456-21.943 21.943-36.571 29.258-58.514 29.258v-204.8c7.315 0 7.315-7.315 21.943-7.315 7.315 0 21.943-7.315 36.571-7.315 58.514-14.628 109.714-36.571 146.285-58.514s58.514-43.886 73.143-73.143c14.628-21.943 21.943-51.2 29.258-73.143 0-21.943 7.315-43.886 7.315-65.828 0-14.628-7.315-36.571-14.628-65.828s-29.258-51.2-51.2-73.143c-21.943-21.943-58.514-43.886-95.086-65.828s-80.456-29.258-146.285-36.571v-80.456h-87.771v80.456c-95.086 7.315-168.228 29.258-219.428 80.456-51.2 43.886-80.456 117.029-87.771 204.8h175.543c-21.943-43.886-7.315-80.456 21.943-102.399zM431.544 719.238c-14.628-7.315-21.943-7.315-36.571-14.628-7.315-7.315-21.943-14.628-29.258-29.258 0-14.628-7.315-29.258-7.315-43.886 0-21.943 7.315-43.886 29.258-58.514 14.628-14.628 43.886-21.943 87.771-36.571v190.171c-14.628 0-29.258-7.315-43.886-7.315zM592.456 141.41c14.628 7.315 29.258 14.628 43.886 21.943s21.943 21.943 29.258 36.571c7.315 14.628 14.628 29.258 14.628 51.2 0 29.258-7.315 51.2-29.258 65.828s-43.886 29.258-95.086 43.886v-219.428c14.628-7.315 21.943-7.315 36.571 0z" />
<glyph unicode="&#xe90d;" glyph-name="number-sign" d="M1024 529.067v204.8h-204.8v204.8h-204.8v-204.8h-204.8v204.8h-204.8v-204.8h-204.8v-204.8h204.8v-204.8h-204.8v-204.8h204.8v-204.8h204.8v213.334h204.8v-213.334h204.8v204.8h204.8v204.8h-204.8v204.8h204.8zM409.6 324.267v204.8h204.8v-204.8h-204.8z" />
<glyph unicode="&#xe90e;" glyph-name="delete-x" d="M1024 716.801l-213.334 221.866-298.666-290.134-290.134 290.134-221.866-221.866 298.666-290.134-298.666-290.134 221.866-221.866 290.134 290.134 298.666-290.134 213.334 221.866-290.134 290.134z" />
<glyph unicode="&#xe90f;" glyph-name="library" d="M255.999 746.667c0-70.692-57.308-128-128-128s-128 57.308-128 128c0 70.692 57.308 128 128 128s128-57.308 128-128zM255.999 426.667c0-70.692-57.308-128-128-128s-128 57.308-128 128c0 70.692 57.308 128 128 128s128-57.308 128-128zM255.999 106.667c0-70.692-57.308-128-128-128s-128 57.308-128 128c0 70.692 57.308 128 128 128s128-57.308 128-128zM320 202.667h704v-192h-704v192zM320 522.667h704v-192h-704v192zM320 842.667h704v-192h-704v192z" />
<glyph unicode="&#xe910;" glyph-name="user-menu-icon" d="M876.243 561.091c0-199.467-160.441-364.243-364.243-364.243s-364.243 160.441-364.243 364.243 164.776 364.243 364.243 364.243 364.243-164.776 364.243-364.243zM277.843 448.348c39.026-82.389 164.776-177.785 299.2-134.424 73.716 21.681 130.087 69.38 160.441 134.424-151.768 0-307.872 0-459.641 0zM35.015-72h953.971c0 0-34.69 234.157-268.846 286.191 0 0-199.467-117.078-416.278 0 0-4.337-199.467-43.363-268.846-286.191z" />
<glyph unicode="&#xe911;" glyph-name="Auto" d="M935.253 556.374l-81.92 218.453c-13.653 40.96-47.787 75.093-116.053 75.093h-443.733c-61.44 0-95.573-34.133-116.053-75.093l-81.92-218.453c-34.133-6.827-95.573-40.96-95.573-116.053v-273.067h81.92v-88.747c0-109.227 150.187-109.227 150.187 0v88.747h552.96v-88.747c0-109.227 157.013-109.227 157.013 0v88.747h81.92v273.067c0 75.093-54.613 116.053-88.747 116.053zM163.84 331.094c-40.96 0-68.267 34.133-68.267 75.093s34.133 75.093 68.267 75.093c40.96 0 68.267-34.133 68.267-75.093s-27.307-75.093-68.267-75.093zM512 563.2v0h-327.68l61.44 170.667c6.827 27.307 20.48 40.96 47.787 40.96h436.907c27.307 0 40.96-20.48 47.787-40.96l61.44-170.667h-327.68zM866.987 331.094c-40.96 0-68.267 34.133-68.267 75.093s34.133 75.093 68.267 75.093c40.96 0 68.267-34.133 68.267-75.093s-34.133-75.093-68.267-75.093z" />
<glyph unicode="&#xe912;" glyph-name="CPG-food" d="M348.16 788.48l327.68 75.093v75.093l-327.68-75.093zM334.507 768l-150.187-95.573 197.973 40.96zM170.667 665.6v0-662.187l334.507-88.747v655.36l-6.827 6.827zM525.653-85.333l327.68 88.747v655.36l-327.68-95.573zM518.827 583.68l-163.84 191.147 327.68 75.093 163.84-177.493z" />
<glyph unicode="&#xe913;" glyph-name="CPG-health-beauty" d="M410.278 602.984h142.411v81.377h-142.411v-81.377zM837.51 786.084l47.471 33.907c0 0-40.689 67.815-108.504 67.815h-176.317v27.126c0 6.782-47.471 20.344-108.504 20.344s-115.284-13.562-115.284-20.344v0-196.662h223.788v108.504h176.317c27.126 0 54.251-33.907 61.033-40.689zM145.801 358.852v-325.51c0-67.815 67.815-122.066 149.193-122.066h379.761c81.377 0 149.193 54.251 149.193 122.066v325.51c0 67.815-67.815 122.066-149.193 122.066h-386.543c-81.377 0-142.411-54.251-142.411-122.066zM634.066 514.826v88.159h-311.947v-94.94h311.947z" />
<glyph unicode="&#xe914;" glyph-name="CPG-home" d="M-30.517 623.329c0-13.562 0-27.126 0-40.689h27.126v-40.689h-27.126c0-13.562 0-27.126 0-40.689h27.126v-40.689h-27.126c0-13.562 0-27.126 0-40.689h27.126v-40.689h-27.126c0-13.562 0-27.126 0-40.689h27.126v-40.689h-27.126c0-13.562 0-27.126 0-40.689h27.126v-40.689h-27.126c0-13.562 0-27.126 0-40.689h27.126v-40.689h-27.126c0-13.562 0-27.126 0-40.689h27.126v-40.689h-27.126c0-13.562 0-33.907 0-40.689 122.066 0 210.226 40.689 257.695 61.033v596.769c-40.689-6.782-135.629-47.471-257.695-47.471zM274.649 650.455v-542.517c0-88.16 162.755-155.973 359.417-155.973s359.417 74.596 359.417 155.973v542.517c-67.815-61.033-196.662-108.504-359.417-108.504s-298.384 47.471-359.417 108.504zM627.284 901.37c-196.662 0-359.417-74.596-359.417-155.973s162.755-155.973 359.417-155.973c196.662 0 359.417 74.596 359.417 155.973s-155.973 155.973-359.417 155.973zM627.284 684.362c-74.596 0-135.629 27.126-135.629 61.033s61.033 61.033 135.629 61.033 135.629-27.126 135.629-61.033-61.033-61.033-135.629-61.033z" />
<glyph unicode="&#xe915;" glyph-name="Consumer-electronics" d="M369.589 837.771l-81.377-142.411h-176.317c-61.033 0-108.504-47.471-108.504-108.504v-474.702c0-61.033 47.471-108.504 108.504-108.504h806.992c61.033 0 108.504 47.471 108.504 108.504v474.702c0 61.033-47.471 108.504-108.504 108.504h-176.317l-81.377 142.411h-291.603zM512 627.545c149.193 0 271.259-122.066 271.259-271.259s-122.066-271.259-271.259-271.259c-149.193 0-271.259 122.066-271.259 271.259s122.066 271.259 271.259 271.259zM884.98 607.201c27.126 0 47.471-20.344 47.471-47.471s-20.344-47.471-47.471-47.471c-27.126 0-47.471 20.344-47.471 47.471s20.344 47.471 47.471 47.471zM512 580.076c-122.066 0-223.788-101.722-223.788-223.788s101.722-223.788 223.788-223.788c122.066 0 223.788 101.722 223.788 223.788s-101.722 223.788-223.788 223.788zM512 485.135c74.595 0 128.848-61.033 128.848-128.848 0-74.595-61.033-128.848-128.848-128.848s-128.848 61.033-128.848 128.848c0 67.815 54.251 128.848 128.848 128.848z" />
<glyph unicode="&#xe916;" glyph-name="ecommerce" d="M320.853 256h443.733l129.707 320.853h-573.44l-47.787 109.227h-122.88v-61.44h88.747l20.48-47.787 61.44-320.853zM368.64 215.040c-34.133 0-61.44-27.307-61.44-61.44s27.307-61.44 61.44-61.44c34.133 0 61.44 27.307 61.44 61.44 0 27.307-27.307 61.44-61.44 61.44zM696.32 215.040c-34.133 0-61.44-27.307-61.44-61.44s27.307-61.44 61.44-61.44c34.133 0 61.44 27.307 61.44 61.44 6.827 27.307-27.307 61.44-61.44 61.44zM1024 426.667c0-279.893-232.107-512-512-512s-512 232.107-512 512 232.107 512 512 512 512-232.107 512-512z" />
<glyph unicode="&#xe917;" glyph-name="entertainment" d="M834.37 534.123l-139.062 246.518c-6.321 6.321-12.641 6.321-18.963 6.321l-461.432-265.481h233.877l6.321 6.321c0 0 6.321 6.321 6.321 6.321l-12.641 63.21c0 6.321 0 6.321 6.321 6.321 0 0 6.321 0 12.641 0l56.889-44.247c0 0 6.321 0 6.321 0l63.21 31.604c6.321 0 12.641-6.321 12.641-12.641l-25.284-69.53h252.84c6.321 12.641 6.321 18.963 0 25.284zM1011.358 635.259l-139.062 246.518c-6.321 12.641-25.284 18.963-37.926 6.321-44.247-25.284-94.815-12.641-120.099 31.604-6.321 12.641-18.963 18.963-31.604 12.641l-619.455-360.296c-12.641-6.321-18.963-18.963-12.641-31.604 25.284-44.247 12.641-94.815-31.604-120.099-6.321-6.321-12.641-18.963-12.641-25.284 6.321 6.321 18.963 6.321 25.284 6.321 25.284 0 50.567 25.284 50.567 50.567 0 37.926 31.604 63.21 63.21 63.21h6.321c6.321 6.321 12.641 12.641 18.963 18.963l486.715 284.444c25.284 12.641 56.889 6.321 69.53-18.963l139.062-246.518c6.321-12.641 6.321-25.284 6.321-37.926 31.604-6.321 50.567-31.604 50.567-63.21 0-6.321 0-18.963 6.321-25.284l25.284 18.963c12.641 6.321 18.963 25.284 6.321 37.926-25.284 44.247-12.641 94.815 31.604 120.099 25.284 6.321 31.604 18.963 18.963 31.604zM815.407 363.457h-619.455c-6.321 0-12.641-6.321-12.641-12.641v-309.728c0-6.321 6.321-12.641 12.641-12.641h613.135c6.321 0 12.641 6.321 12.641 12.641v309.728c6.321 6.321 0 12.641-6.321 12.641zM632.099 218.075l-63.21-50.567c0 0-6.321-6.321 0-6.321l18.963-75.852c0-6.321-6.321-12.641-12.641-12.641 0 0-6.321 0-6.321 0l-63.21 44.247c0 0 0 0-6.321 0 0 0 0 0-6.321 0l-63.21-44.247c0 0-6.321 0-6.321 0-6.321 0-12.641 6.321-12.641 12.641l18.963 75.852c0 0 0 6.321 0 6.321l-63.21 50.567c-6.321 6.321 0 18.963 6.321 18.963h82.173c0 0 6.321 0 6.321 6.321l25.284 75.852c0 6.321 6.321 6.321 12.641 6.321s6.321 0 12.641-6.321l25.284-75.852c0 0 6.321-6.321 6.321-6.321h82.173c12.641-6.321 12.641-12.641 6.321-18.963zM979.752 363.457c-50.567 0-88.493 37.926-88.493 88.493 0 12.641-12.641 25.284-25.284 25.284h-720.591c-12.641 0-25.284-12.641-25.284-25.284 0-50.567-37.926-88.493-88.493-88.493-12.641 0-25.284-12.641-25.284-25.284v-284.444c0-12.641 12.641-25.284 25.284-25.284 50.567 0 88.493-37.926 88.493-88.493 0-12.641 12.641-25.284 25.284-25.284h714.27c12.641 0 25.284 12.641 25.284 25.284 0 50.567 37.926 88.493 88.493 88.493 12.641 0 25.284 12.641 25.284 25.284v284.444c6.321 12.641-6.321 25.284-18.963 25.284zM865.974 41.087c0-31.604-25.284-56.889-56.889-56.889h-606.814c-31.604 0-56.889 25.284-56.889 56.889v303.407c0 31.604 25.284 56.889 56.889 56.889h613.135c31.604 0 56.889-25.284 56.889-56.889v-303.407z" />
<glyph unicode="&#xe918;" glyph-name="finance" d="M1023.999 548.267h-1023.999v51.199l511.999 307.199 511.999-307.199zM0.001-2.133h1023.999v-51.199h-1023.999v51.199zM51.201 497.066h921.598v-51.199h-921.598v51.199zM870.399 100.268v358.399h-102.4v-358.399h-51.199v358.399h-102.4v-358.399h-51.199v358.399h-102.4v-358.399h-51.199v358.399h-102.4v-358.399h-51.199v358.399h-102.4v-358.399h-102.4v-51.199h921.598v51.199z" />
<glyph unicode="&#xe919;" glyph-name="insurance" d="M1015.418 335.136c0 263.151-211.665 480.535-474.814 497.697v22.883c0 17.162-11.441 28.603-28.603 28.603s-28.603-11.441-28.603-28.603v-22.883c-257.43-11.441-463.373-223.106-474.814-486.256-5.721-11.441-5.721-22.883-5.721-40.045h51.486c0 5.721 0 17.162 5.721 22.883v0c0 0 0 5.721 0 5.721 11.441 34.324 45.765 62.927 91.531 62.927 51.486 0 97.251-40.045 97.251-97.251h51.486c0 51.486 40.045 97.251 97.251 97.251 45.765 0 85.81-34.324 91.531-80.089v-251.708c0-22.883-17.162-45.765-45.765-45.765-22.883 0-45.765 17.162-45.765 45.765 0 17.162-11.441 28.603-28.603 28.603s-28.603-5.721-28.603-22.883c0-57.207 57.207-102.972 108.693-102.972s102.972 45.765 102.972 102.972v263.151c11.441 40.045 40.045 68.648 85.81 68.648 51.486 0 97.251-40.045 97.251-97.251h51.486c0 5.721 0 5.721 0 11.441v0c0 51.486 40.045 97.251 97.251 97.251 45.765 0 85.81-34.324 91.531-80.089v0 0c0-5.721 0-11.441 0-17.162h51.486c-11.441 5.721-11.441 11.441-11.441 17.162z" />
<glyph unicode="&#xe91a;" glyph-name="pharma" d="M645.565 388.506h-69.962v69.962c0 38.161-31.801 69.962-69.962 69.962s-69.962-31.801-69.962-69.962v-69.962h-57.242c-38.161 0-69.962-31.801-69.962-69.962s31.801-69.962 69.962-69.962h69.962v-69.962c0-38.161 31.801-69.962 69.962-69.962s69.962 31.801 69.962 69.962v69.962h69.962c38.161 0 69.962 31.801 69.962 69.962-19.081 44.522-44.522 69.962-82.684 69.962zM842.733 642.916l-127.204 89.043v50.881h31.801c12.72 0 19.081 6.361 19.081 19.081v114.484c0 6.361-12.72 19.081-25.441 19.081h-464.298c-12.72 0-19.081-12.72-19.081-19.081v-114.484c0-12.72 6.361-19.081 19.081-19.081h31.801v-25.441c0-19.081-6.361-31.801-25.441-44.522l-108.124-69.962c-12.72-6.361-19.081-25.441-19.081-44.522v-636.025c0-25.441 25.441-50.881 50.881-50.881h610.583c25.441 0 50.881 25.441 50.881 50.881v636.025c0 19.081-12.72 38.161-25.441 44.522zM512 25.972c-165.366 0-298.931 133.565-298.931 298.931s133.565 292.572 298.931 292.572 298.931-133.565 298.931-298.931-139.926-292.572-298.931-292.572z" />
<glyph unicode="&#xe91b;" glyph-name="QSR" d="M973.989 706.796h-337.297c-34.301 0-40.019 0-34.301-40.019l57.169-594.559c5.718-34.301 5.718-34.301 34.301-34.301h217.243c28.584 0 28.584 0 34.301 34.301l68.603 594.559c0 40.019-5.718 40.019-40.019 40.019zM47.848 369.498h531.673v57.169c0 125.773-148.639 177.225-268.692 177.225s-262.979-51.453-262.979-177.225c0 0 0-57.169 0-57.169zM310.827 20.766c120.055 0 268.692 11.434 262.979 102.904v45.735h-525.959v-45.735c-5.718-97.188 142.923-102.904 262.979-102.904zM36.415 220.858h548.824c22.868 0 28.584 28.584 28.584 51.453s-11.434 51.453-28.584 51.453h-114.338l-74.32-80.036-102.904 80.036h-257.261c-22.868 0-28.584-22.868-28.584-51.453s11.434-51.453 28.584-51.453zM682.426 260.877l91.471 22.868 160.074 548.824c11.434 40.019 5.718 68.603-34.301 80.036s-34.301-17.151-45.735-57.169l-171.508-594.559z" />
<glyph unicode="&#xe91c;" glyph-name="retail" d="M1020.61 541.951v291.604c0 54.251-40.689 94.94-94.94 94.94h-291.604c-27.126 0-54.251-13.562-67.815-27.126l-528.954-528.954c-33.907-33.907-33.907-94.94 0-135.629l298.384-298.384c33.907-33.907 94.94-33.907 135.629 0l528.954 528.954c6.782 27.126 20.344 47.471 20.344 74.596zM742.57 650.455c-40.689 40.689-40.689 108.504 0 155.973s108.504 40.689 155.973 0 40.689-108.504 0-155.973c-47.471-40.689-115.284-40.689-155.973 0z" />
<glyph unicode="&#xe91d;" glyph-name="telco" d="M665.6 125.868l-12.799 70.399c121.6 57.6 211.2 179.2 211.2 319.999 0 192-160 352-352 352s-352-160-352-352c0-140.8 83.2-268.8 211.2-319.999l-12.799-70.399c-160 64-268.8 211.2-268.8 390.4 0 230.4 192 422.4 422.4 422.4s422.4-185.599 422.4-422.4c0-179.2-115.2-332.8-268.8-390.4zM396.8 375.468l-12.799-76.8c-76.8 44.8-127.999 127.999-127.999 217.6 0 140.8 115.2 256 256 256s249.6-115.2 249.6-249.6c0-96-51.199-172.8-127.999-217.6l-12.799 76.8c38.4 31.999 64 83.2 64 140.8 0 102.4-83.2 179.2-179.2 179.2s-179.2-83.2-179.2-185.599c0-57.6 25.6-108.799 70.399-140.8zM358.4-27.732h70.399l64 467.2c-38.4 12.799-64 44.8-64 83.2 0 44.8 38.4 83.2 83.2 83.2s83.2-38.4 83.2-83.2c0-38.4-25.6-70.399-64-83.2l64-467.2h96c0 0 70.399-6.4 70.399-57.6h-473.599c0 0-6.4 57.6 70.399 57.6z" />
<glyph unicode="&#xe91e;" glyph-name="travel" d="M946.229 942.698c-45.368 0-97.215-25.925-142.583-71.291-71.291-64.811-142.583-136.102-207.392-207.392l-557.368 110.177-45.368-77.772 421.266-207.392-239.798-278.685c-51.848 19.443-142.583 38.886-142.583-25.925 0-12.962 6.482-25.925 12.962-38.886l168.506-168.506c12.962-12.962 25.925-12.962 38.886-12.962 64.811 0 45.368 84.254 25.925 142.583l278.685 239.798 207.392-421.266 84.254 38.886-110.177 557.368c71.291 64.811 142.583 136.102 207.392 207.392 45.368 45.368 71.291 97.215 71.291 142.583 0 25.925-6.482 45.368-25.925 58.329 0 6.482-19.443 12.962-45.368 12.962z" />
<glyph unicode="&#xe91f;" glyph-name="other-category" d="M266.994 633.98c-18.847 18.847-43.976 18.847-62.823 0l-175.902-175.902c-18.847-18.847-18.847-50.257 0-69.104l182.183-182.183c18.847-18.847 43.976-12.564 62.823 6.283l175.902 175.902c18.847 18.847 25.129 37.693 6.283 56.54l-188.466 188.466zM537.129 357.563c-18.847 18.847-37.693 12.564-56.54-6.283l-175.902-175.902c-18.847-18.847-25.129-43.976-6.283-62.823l182.183-182.183c18.847-18.847 50.257-18.847 69.104 0l175.902 175.902c18.847 18.847 18.847 43.976 0 62.823l-188.466 188.466zM819.829 640.262c-18.847 18.847-43.976 12.564-62.823-6.283l-175.902-175.902c-18.847-18.847-25.129-37.693-6.283-56.54l182.183-182.183c18.847-18.847 43.976-18.847 62.823 0l175.902 175.902c18.847 18.847 18.847 50.257 0 69.104l-175.902 175.902zM543.411 916.679c-18.847 18.847-50.257 18.847-69.104 0l-175.902-182.183c-18.847-18.847-18.847-43.976 0-62.823l182.183-182.183c18.847-18.847 37.693-12.564 56.54 6.283l175.902 175.902c18.847 18.847 25.129 43.976 6.283 62.823l-175.902 182.183z" />
</font>
</defs>
</svg>
